<?xml version="1.0" encoding="UTF-8" standalone="no" ?>
<!DOCTYPE svg PUBLIC "-//W3C//DTD SVG 1.1//EN" "http://www.w3.org/Graphics/SVG/1.1/DTD/svg11.dtd">
<svg xmlns="http://www.w3.org/2000/svg" xmlns:xlink="http://www.w3.org/1999/xlink" version="1.1" width="810" height="620" viewBox="0 0 600 459.26" xml:space="preserve">
<desc>Created with Fabric.js 3.6.3</desc>
<defs>
</defs>
<g transform="matrix(3.55 0 0 3.55 300.04 229.97)"  >
<path style="stroke: none; stroke-width: 1; stroke-dasharray: none; stroke-linecap: butt; stroke-dashoffset: 0; stroke-linejoin: miter; stroke-miterlimit: 4; fill: rgb(0,129,198); fill-rule: evenodd; opacity: 1;"  transform=" translate(-88.9, -68.3)" d="M 88.9 3.8 h 80.9 c 1.8 0 3.3 1.5 3.3 3.3 v 122.4 c 0 1.8 -1.5 3.3 -3.3 3.3 H 8 c -1.8 0 -3.3 -1.5 -3.3 -3.3 V 7.1 c 0 -1.8 1.5 -3.3 3.3 -3.3 H 88.9 z" stroke-linecap="round" />
</g>
<g transform="matrix(3.55 0 0 3.55 297.47 231.76)"  >
<path style="stroke: none; stroke-width: 1; stroke-dasharray: none; stroke-linecap: butt; stroke-dashoffset: 0; stroke-linejoin: miter; stroke-miterlimit: 4; fill: rgb(255,255,255); fill-rule: nonzero; opacity: 1;"  transform=" translate(-87.9, -68.8)" d="M 81.4 9.3 c 2.5 -5.7 3.3 -6.7 4.5 -6.7 c 1.2 0 2.1 0.9 4.5 6.2 c 3.1 6.5 35.4 77.4 48 103.5 c 7.4 15.3 13.4 18 17.7 19.1 c 3.1 0.9 6.2 1 8.2 1 c 1.2 0 2.1 0.2 2.1 1 c 0 1 -1.9 1.4 -4.1 1.4 c -3.1 0 -18.1 0 -32.3 -0.3 c -3.9 -0.2 -6.2 -0.2 -6.2 -1.2 c 0 -0.7 0.6 -1 1.4 -1.2 c 1.2 -0.3 2.5 -1.9 1.2 -4.6 l -19.2 -42.2 c -0.4 -0.7 -0.8 -1 -1.9 -1 H 61.2 c -1 0 -1.6 0.5 -2.1 1.4 l -12.4 30.4 c -1.9 4.3 -2.9 8.4 -2.9 11.5 c 0 3.4 4.3 5 7.8 5 h 2.1 c 1.4 0 2.1 0.3 2.1 1 c 0 1 -1.2 1.4 -3.1 1.4 c -4.9 0 -13.8 -0.5 -16.1 -0.5 c -2.3 0 -13.6 0.5 -23.3 0.5 c -2.7 0 -3.9 -0.3 -3.9 -1.4 c 0 -0.7 0.8 -1 1.9 -1 c 1.4 0 4.3 -0.2 6 -0.3 c 9.5 -1 13.6 -7.6 17.3 -16.1 L 81.4 9.3 z M 102.9 77.9 c 1 0 1 -0.5 0.8 -1.2 L 84.1 30.4 c -1 -2.6 -2.1 -2.6 -3.1 0 L 62.9 76.7 c -0.4 0.9 0 1.2 0.6 1.2 H 102.9 z" stroke-linecap="round" />
</g>
<g transform="matrix(3.55 0 0 3.55 347.11 277.49)"  >
<line style="stroke: rgb(0,129,198); stroke-width: 4; stroke-dasharray: none; stroke-linecap: butt; stroke-dashoffset: 0; stroke-linejoin: miter; stroke-miterlimit: 10; fill: rgb(0,129,198); fill-rule: nonzero; opacity: 1;"  x1="-4.049999999999997" y1="-9.150000000000006" x2="4.049999999999997" y2="9.150000000000006" />
</g>
<g transform="matrix(3.55 0 0 3.55 42.46 427.13)"  >
<path style="stroke: none; stroke-width: 1; stroke-dasharray: none; stroke-linecap: butt; stroke-dashoffset: 0; stroke-linejoin: miter; stroke-miterlimit: 4; fill: rgb(255,255,255); fill-rule: nonzero; opacity: 1;"  transform=" translate(-16.35, -123.95)" d="M 15.5 125.7 c -1.7 0 -2 0 -2.3 0 c -0.4 0 -0.5 0.1 -0.6 0.5 c 0 0.1 0 0.3 0 0.5 c 0 0.1 0 0.2 -0.1 0.2 c -0.1 0 -0.1 -0.1 -0.1 -0.3 c 0 -0.6 0 -1.3 0 -1.6 c 0 -0.4 0 -2.9 0 -3.1 c 0 -0.2 -0.1 -0.4 -0.1 -0.5 c 0 -0.1 -0.1 -0.1 -0.1 -0.2 c 0 -0.1 0.1 -0.1 0.1 -0.1 c 0.1 0 0.2 0.1 0.7 0.1 c 0.1 0 0.6 0 0.7 0.1 c 0.1 0 0.2 0 0.2 0.1 c 0 0.1 -0.1 0.1 -0.1 0.1 c -0.1 0 -0.3 0 -0.4 0.1 c -0.2 0.1 -0.3 0.2 -0.4 0.8 c 0 0.2 -0.1 1.6 -0.1 1.8 c 0 0.1 0 0.1 0.1 0.1 h 2.7 c 0.1 0 0.1 0 0.1 -0.1 c 0 -0.3 0 -1.7 0 -2 c 0 -0.3 -0.1 -0.4 -0.2 -0.5 c -0.1 -0.1 -0.1 -0.1 -0.1 -0.2 c 0 -0.1 0.1 -0.1 0.1 -0.1 c 0.1 0 0.2 0 0.8 0.1 c 0.2 0 0.7 0.1 0.7 0.1 c 0.1 0 0.2 0 0.2 0.1 c 0 0.1 0 0.1 -0.1 0.1 c -0.1 0 -0.3 0 -0.4 0 c -0.2 0.1 -0.4 0.2 -0.4 0.6 c 0 0.2 -0.1 1.5 -0.1 1.8 c 0 0.1 0.1 0.1 0.1 0.1 h 0.9 c 0.4 0 1.3 0 1.6 0 c 0.8 0 0.9 -0.4 0.9 -1.5 c 0 -0.3 0 -0.8 -0.1 -1.1 c -0.1 -0.3 -0.4 -0.4 -0.8 -0.5 c -0.1 0 -0.2 -0.1 -0.2 -0.1 c 0 -0.1 0.1 -0.1 0.3 -0.1 c 0.2 0 1 0.1 1.2 0.2 c 0.3 0.1 0.3 0.2 0.3 0.6 c 0 0.9 0 1.5 0 2.1 c 0 0.6 0 1 0 1.3 c 0 0.1 0 0.4 0 0.6 c 0 0.3 0 0.6 0 0.8 c 0 0.1 0 0.2 -0.1 0.2 c -0.1 0 -0.1 0 -0.1 -0.2 c 0 -0.2 0 -0.3 0 -0.4 c -0.1 -0.2 -0.3 -0.3 -0.6 -0.3 c -0.5 -0.1 -1.3 -0.1 -2.3 -0.1 H 15.5 z" stroke-linecap="round" />
</g>
<g transform="matrix(3.55 0 0 3.55 43.17 395.92)"  >
<path style="stroke: none; stroke-width: 1; stroke-dasharray: none; stroke-linecap: butt; stroke-dashoffset: 0; stroke-linejoin: miter; stroke-miterlimit: 4; fill: rgb(255,255,255); fill-rule: nonzero; opacity: 1;"  transform=" translate(-16.55, -115.15)" d="M 16 114.3 c 0.5 -0.4 3.5 -2.3 3.9 -2.5 c 0.2 -0.2 0.4 -0.4 0.4 -0.6 c 0.1 -0.2 0.1 -0.3 0.1 -0.4 c 0 -0.1 0.1 -0.1 0.1 -0.1 c 0.1 0 0.1 0.1 0.1 0.2 v 0.3 c 0 0.3 0 1.2 0 2.1 c 0 0.3 0 0.4 -0.1 0.4 c -0.1 0 -0.1 -0.1 -0.1 -0.2 c 0 -0.1 -0.1 -0.1 -0.2 0 c -1.1 0.7 -2.1 1.3 -3 1.8 l 2.6 1.7 c 0.2 0.1 0.3 0.2 0.5 0.2 c 0.1 0 0.2 -0.1 0.2 -0.2 c 0 -0.1 0 -0.2 0 -0.2 c 0 -0.1 0.1 -0.1 0.1 -0.1 c 0.1 0 0.1 0.1 0.1 0.2 v 0.2 c 0 0.1 0 0.8 0 1.1 c 0 0.2 0 0.8 0 1 v 0.2 c 0 0.1 0 0.2 -0.1 0.2 c -0.1 0 -0.1 -0.1 -0.1 -0.2 c 0 -0.1 0 -0.2 -0.1 -0.4 c -0.1 -0.3 -0.3 -0.5 -0.8 -0.9 l -3 -2.2 l -3.1 2 c -0.4 0.3 -0.7 0.5 -0.8 0.9 c -0.1 0.2 -0.1 0.4 -0.1 0.5 c 0 0.1 -0.1 0.1 -0.1 0.1 c -0.1 0 -0.1 -0.1 -0.1 -0.2 c 0 -0.3 0 -1.2 0 -1.7 c 0 -0.2 0 -0.9 0 -1.3 c 0 -0.2 0 -0.2 0.1 -0.2 c 0.1 0 0.1 0.1 0.1 0.2 c 0 0.1 0 0.2 0 0.3 c 0 0.1 0.1 0.2 0.2 0.2 c 0.1 0 0.2 -0.1 0.3 -0.1 c 0.9 -0.5 1.6 -1 2.4 -1.4 c -0.5 -0.3 -2 -1.3 -2.3 -1.5 c -0.2 -0.1 -0.3 -0.1 -0.4 -0.1 c -0.1 0 -0.2 0.1 -0.2 0.2 c 0 0.1 0 0.3 0 0.4 c 0 0.1 0 0.1 -0.1 0.1 c -0.1 0 -0.1 -0.1 -0.1 -0.2 c 0 -0.4 0 -1 0 -1.2 c 0 -0.2 0 -0.7 0 -1.1 c 0 -0.1 0 -0.2 0.1 -0.2 c 0.1 0 0.1 0.1 0.1 0.2 c 0 0.1 0 0.3 0.1 0.4 c 0.1 0.3 0.4 0.5 0.8 0.8 L 16 114.3 z" stroke-linecap="round" />
</g>
<g transform="matrix(3.55 0 0 3.55 43.16 346.28)"  >
<path style="stroke: none; stroke-width: 1; stroke-dasharray: none; stroke-linecap: butt; stroke-dashoffset: 0; stroke-linejoin: miter; stroke-miterlimit: 4; fill: rgb(255,255,255); fill-rule: nonzero; opacity: 1;"  transform=" translate(-16.55, -101.15)" d="M 13.4 104.6 c -0.6 0.3 -0.7 0.4 -0.8 0.8 c 0 0.2 0 0.4 0 0.4 c 0 0.1 -0.1 0.1 -0.1 0.1 c -0.1 0 -0.1 -0.1 -0.1 -0.3 c 0 -0.6 0 -1.3 0 -1.7 c 0 -0.3 0 -0.9 0 -1.5 c 0 -0.1 0 -0.3 0.1 -0.3 c 0.1 0 0.1 0.1 0.1 0.2 c 0 0.2 0 0.3 0.1 0.4 c 0.1 0.1 0.1 0.1 0.2 0.1 c 0.1 0 0.4 -0.1 0.8 -0.3 l 4.9 -1.9 v 0 c -1.1 -0.5 -4.7 -2 -5.4 -2.2 c -0.1 -0.1 -0.3 -0.1 -0.4 -0.1 c -0.1 0 -0.2 0.1 -0.2 0.2 c 0 0.1 -0.1 0.3 -0.1 0.5 c 0 0.1 0 0.2 -0.1 0.2 c -0.1 0 -0.1 -0.1 -0.1 -0.3 c 0 -0.6 0 -1.1 0 -1.2 c 0 -0.2 0 -0.7 0 -1.1 c 0 -0.1 0 -0.2 0.1 -0.2 c 0.1 0 0.1 0.1 0.1 0.2 c 0 0.1 0 0.4 0.1 0.6 c 0.1 0.1 0.3 0.3 1 0.6 c 1 0.5 1.6 0.8 3 1.4 c 1.6 0.7 2.8 1.3 3.4 1.5 c 0.6 0.3 0.8 0.4 0.8 0.5 c 0 0.2 -0.1 0.2 -0.7 0.5 L 13.4 104.6 z" stroke-linecap="round" />
</g>
<g transform="matrix(3.55 0 0 3.55 42.46 316.48)"  >
<path style="stroke: none; stroke-width: 1; stroke-dasharray: none; stroke-linecap: butt; stroke-dashoffset: 0; stroke-linejoin: miter; stroke-miterlimit: 4; fill: rgb(255,255,255); fill-rule: nonzero; opacity: 1;"  transform=" translate(-16.35, -92.75)" d="M 15.5 94.5 c -1.7 0 -2 0 -2.3 0 c -0.4 0 -0.5 0.1 -0.6 0.5 c 0 0.1 0 0.3 0 0.5 c 0 0.1 0 0.2 -0.1 0.2 c -0.1 0 -0.1 -0.1 -0.1 -0.3 c 0 -0.6 0 -1.3 0 -1.6 c 0 -0.4 0 -2.9 0 -3.1 c 0 -0.2 -0.1 -0.4 -0.1 -0.5 c 0 -0.1 -0.1 -0.1 -0.1 -0.2 c 0 -0.1 0.1 -0.1 0.1 -0.1 c 0.1 0 0.2 0.1 0.7 0.1 c 0.1 0 0.6 0 0.7 0.1 c 0.1 0 0.2 0 0.2 0.1 c 0 0.1 -0.1 0.1 -0.1 0.1 c -0.1 0 -0.3 0 -0.4 0.1 c -0.2 0.1 -0.3 0.2 -0.4 0.8 c 0 0.2 -0.1 1.6 -0.1 1.8 c 0 0.1 0 0.1 0.1 0.1 h 2.7 c 0.1 0 0.1 0 0.1 -0.1 c 0 -0.3 0 -1.7 0 -2 c 0 -0.3 -0.1 -0.4 -0.2 -0.5 c -0.1 -0.1 -0.1 -0.1 -0.1 -0.2 c 0 -0.1 0.1 -0.1 0.1 -0.1 c 0.1 0 0.2 0 0.8 0.1 c 0.2 0 0.7 0.1 0.7 0.1 c 0.1 0 0.2 0 0.2 0.1 c 0 0.1 0 0.1 -0.1 0.1 c -0.1 0 -0.3 0 -0.4 0 c -0.2 0.1 -0.4 0.2 -0.4 0.6 c 0 0.2 -0.1 1.5 -0.1 1.8 c 0 0.1 0.1 0.1 0.1 0.1 h 0.9 c 0.4 0 1.3 0 1.6 0 c 0.8 0 0.9 -0.4 0.9 -1.5 c 0 -0.3 0 -0.8 -0.1 -1.1 c -0.1 -0.3 -0.4 -0.4 -0.8 -0.5 c -0.1 0 -0.2 -0.1 -0.2 -0.1 c 0 -0.1 0.1 -0.1 0.3 -0.1 c 0.2 0 1 0.1 1.2 0.2 c 0.3 0.1 0.3 0.2 0.3 0.6 c 0 0.9 0 1.5 0 2.1 c 0 0.6 0 1 0 1.3 c 0 0.1 0 0.4 0 0.6 c 0 0.3 0 0.6 0 0.8 c 0 0.1 0 0.2 -0.1 0.2 c -0.1 0 -0.1 0 -0.1 -0.2 c 0 -0.2 0 -0.3 0 -0.4 c -0.1 -0.2 -0.3 -0.3 -0.6 -0.3 c -0.5 -0.1 -1.3 -0.1 -2.3 -0.1 H 15.5 z" stroke-linecap="round" />
</g>
<g transform="matrix(3.55 0 0 3.55 42.99 282.61)"  >
<path style="stroke: none; stroke-width: 1; stroke-dasharray: none; stroke-linecap: butt; stroke-dashoffset: 0; stroke-linejoin: miter; stroke-miterlimit: 4; fill: rgb(255,255,255); fill-rule: nonzero; opacity: 1;"  transform=" translate(-16.5, -83.2)" d="M 15.5 86.6 c -1.7 0 -2 0 -2.3 0 c -0.4 0 -0.5 0.1 -0.6 0.5 c 0 0.1 0 0.3 0 0.5 c 0 0.1 0 0.2 -0.1 0.2 c -0.1 0 -0.1 -0.1 -0.1 -0.3 c 0 -0.6 0 -1.3 0 -1.6 c 0 -0.4 0 -1.4 0 -1.8 c 0 -0.7 0.1 -1.6 0.5 -2.2 c 0.2 -0.3 0.8 -0.8 1.5 -0.8 c 0.8 0 1.5 0.5 2.4 1.6 c 1.2 -1 2.2 -1.8 2.9 -2.5 c 0.6 -0.6 0.7 -1 0.7 -1.2 c 0 -0.1 0 -0.2 0 -0.3 c 0 -0.1 0.1 -0.1 0.1 -0.1 c 0.1 0 0.1 0.1 0.1 0.2 v 1.1 c 0 0.6 -0.1 0.9 -0.2 1.2 c -0.2 0.5 -0.8 0.9 -1.6 1.6 c -0.6 0.5 -1.3 0.9 -1.5 1.1 c -0.1 0.1 -0.1 0.1 -0.1 0.2 l 0 1 c 0 0.1 0 0.1 0.1 0.1 h 0.2 c 1 0 1.9 0 2.3 -0.1 c 0.3 0 0.5 -0.1 0.6 -0.4 c 0 -0.2 0 -0.4 0 -0.6 c 0 -0.1 0.1 -0.1 0.1 -0.1 c 0.1 0 0.1 0.1 0.1 0.2 c 0 0.7 0 1.6 0 1.8 c 0 0.2 0 0.9 0 1.4 c 0 0.1 0 0.2 -0.1 0.2 c -0.1 0 -0.1 0 -0.1 -0.2 c 0 -0.2 0 -0.3 0 -0.4 c -0.1 -0.2 -0.3 -0.3 -0.6 -0.3 c -0.5 -0.1 -1.3 -0.1 -2.3 -0.1 H 15.5 z M 16.3 85.1 c 0.1 0 0.2 0 0.2 -0.1 c 0.1 -0.2 0.1 -0.6 0.1 -0.9 c 0 -0.5 0 -0.6 -0.2 -0.8 c -0.2 -0.3 -0.7 -0.7 -1.6 -0.7 c -1.6 0 -2 1.1 -2 1.7 c 0 0.3 0 0.6 0 0.7 c 0 0.1 0.1 0.1 0.2 0.1 H 16.3 z" stroke-linecap="round" />
</g>
<g transform="matrix(3.55 0 0 3.55 42.45 256.71)"  >
<path style="stroke: none; stroke-width: 1; stroke-dasharray: none; stroke-linecap: butt; stroke-dashoffset: 0; stroke-linejoin: miter; stroke-miterlimit: 4; fill: rgb(255,255,255); fill-rule: nonzero; opacity: 1;"  transform=" translate(-16.35, -75.9)" d="M 15.5 76.9 c -1.7 0 -2 0 -2.3 0 c -0.4 0 -0.5 0.1 -0.6 0.4 c 0 0.1 -0.1 0.3 -0.1 0.4 c 0 0.1 0 0.2 -0.1 0.2 c -0.1 0 -0.1 -0.1 -0.1 -0.3 c 0 -0.4 0 -1.2 0 -1.5 c 0 -0.3 0 -1 0 -1.5 c 0 -0.1 0 -0.2 0.1 -0.2 c 0.1 0 0.1 0.1 0.1 0.2 c 0 0.1 0 0.2 0 0.3 c 0.1 0.3 0.2 0.4 0.6 0.4 c 0.3 0 0.7 0 2.3 0 h 1.9 c 1.1 0 1.9 0 2.4 -0.1 c 0.3 0 0.5 -0.1 0.5 -0.5 c 0 -0.2 0 -0.4 0 -0.6 c 0 -0.1 0.1 -0.2 0.1 -0.2 c 0.1 0 0.1 0.1 0.1 0.2 c 0 0.8 0 1.5 0 1.8 c 0 0.3 0 1 0 1.5 c 0 0.1 0 0.2 -0.1 0.2 c -0.1 0 -0.1 0 -0.1 -0.2 c 0 -0.2 0 -0.3 0 -0.4 c -0.1 -0.2 -0.2 -0.3 -0.5 -0.3 c -0.5 -0.1 -1.3 -0.1 -2.4 -0.1 H 15.5 z" stroke-linecap="round" />
</g>
<g transform="matrix(3.55 0 0 3.55 42.45 231)"  >
<path style="stroke: none; stroke-width: 1; stroke-dasharray: none; stroke-linecap: butt; stroke-dashoffset: 0; stroke-linejoin: miter; stroke-miterlimit: 4; fill: rgb(255,255,255); fill-rule: nonzero; opacity: 1;"  transform=" translate(-16.35, -68.65)" d="M 13 69.3 l 0 1.7 c 0 0.7 0.1 0.9 0.3 1.1 c 0.2 0.1 0.3 0.2 0.4 0.2 c 0.1 0 0.1 0.1 0.1 0.1 c 0 0.1 -0.1 0.1 -0.2 0.1 c -0.2 0 -1.2 -0.2 -1.3 -0.2 c -0.1 0 -0.2 -0.1 -0.2 -0.1 c 0 -0.1 0.1 -0.2 0.1 -0.5 c 0 -0.3 0.1 -0.8 0.1 -1.1 v -4.6 c 0 -0.4 0 -0.6 -0.1 -0.8 c 0 -0.2 -0.1 -0.3 -0.1 -0.3 c 0 -0.1 0.1 -0.1 0.2 -0.1 c 0.2 0 1.1 0 1.3 0 c 0.1 0 0.2 0 0.2 0.1 c 0 0.1 -0.1 0.1 -0.2 0.1 l -0.1 0 c -0.3 0 -0.6 0.3 -0.6 1.3 l 0 1.4 h 4.5 c 1 0 1.9 0 2.4 -0.1 c 0.3 0 0.5 -0.1 0.6 -0.4 c 0 -0.2 0 -0.4 0 -0.6 c 0 -0.1 0.1 -0.2 0.1 -0.2 c 0.1 0 0.1 0.1 0.1 0.2 c 0 0.8 0 1.5 0 1.8 c 0 0.3 0 1 0 1.5 c 0 0.1 0 0.2 -0.1 0.2 c -0.1 0 -0.1 0 -0.1 -0.2 c 0 -0.2 0 -0.3 0 -0.4 c -0.1 -0.2 -0.3 -0.3 -0.6 -0.3 c -0.5 -0.1 -1.3 -0.1 -2.3 -0.1 H 13 z" stroke-linecap="round" />
</g>
<g transform="matrix(3.55 0 0 3.55 42.45 201.75)"  >
<path style="stroke: none; stroke-width: 1; stroke-dasharray: none; stroke-linecap: butt; stroke-dashoffset: 0; stroke-linejoin: miter; stroke-miterlimit: 4; fill: rgb(255,255,255); fill-rule: nonzero; opacity: 1;"  transform=" translate(-16.35, -60.4)" d="M 17.9 62.1 c 0 0.1 0 0.1 0.1 0.1 l 1.5 0.6 C 19.7 63 20 63 20.1 63 c 0.2 0 0.3 -0.1 0.3 -0.5 v -0.2 c 0 -0.1 0.1 -0.2 0.1 -0.2 c 0.1 0 0.1 0.1 0.1 0.2 c 0 0.4 0 0.9 0 1.3 c 0 0.1 0 0.7 0 1.3 c 0 0.1 0 0.2 -0.1 0.2 c -0.1 0 -0.1 0 -0.1 -0.1 c 0 -0.1 0 -0.2 0 -0.3 c -0.1 -0.5 -0.4 -0.7 -1 -0.9 l -6.9 -3 c -0.3 -0.1 -0.4 -0.2 -0.4 -0.3 c 0 -0.2 0.1 -0.2 0.3 -0.3 c 0.6 -0.3 5.1 -2.2 6.8 -2.9 c 1 -0.4 1.1 -0.8 1.2 -1 c 0 -0.2 0 -0.3 0 -0.4 c 0 -0.1 0 -0.2 0.1 -0.2 c 0.1 0 0.1 0.1 0.1 0.5 c 0 0.4 0 1.2 0 2.2 c 0 0.2 0 0.3 -0.1 0.3 c -0.1 0 -0.1 0 -0.1 -0.1 c 0 -0.1 -0.1 -0.2 -0.2 -0.1 l -2.2 0.9 c -0.1 0 -0.1 0.1 -0.1 0.1 V 62.1 z M 17.3 59.7 C 17.3 59.6 17.2 59.6 17.3 59.7 l -2.9 1 c 0 0 -0.1 0 -0.1 0.1 c 0 0 0.1 0.1 0.1 0.1 l 2.8 1.1 c 0.1 0 0.1 0 0.1 0 V 59.7 z" stroke-linecap="round" />
</g>
<g transform="matrix(3.55 0 0 3.55 42.63 173.19)"  >
<path style="stroke: none; stroke-width: 1; stroke-dasharray: none; stroke-linecap: butt; stroke-dashoffset: 0; stroke-linejoin: miter; stroke-miterlimit: 4; fill: rgb(255,255,255); fill-rule: nonzero; opacity: 1;"  transform=" translate(-16.4, -52.35)" d="M 13 53 l 0 1.7 c 0 0.7 0.1 0.9 0.3 1.1 c 0.2 0.1 0.3 0.2 0.4 0.2 c 0.1 0 0.1 0.1 0.1 0.1 c 0 0.1 -0.1 0.1 -0.2 0.1 c -0.2 0 -1.2 -0.2 -1.3 -0.2 c -0.1 0 -0.2 -0.1 -0.2 -0.1 c 0 -0.1 0.1 -0.2 0.1 -0.5 c 0 -0.3 0.1 -0.8 0.1 -1.1 v -4.6 c 0 -0.4 0 -0.6 -0.1 -0.8 c 0 -0.2 -0.1 -0.3 -0.1 -0.3 c 0 -0.1 0.1 -0.1 0.2 -0.1 c 0.2 0 1.1 0 1.3 0 c 0.1 0 0.2 0 0.2 0.1 c 0 0.1 -0.1 0.1 -0.2 0.1 l -0.1 0 C 13.4 48.7 13 49 13 50 l 0 1.4 h 4.5 c 1 0 1.9 0 2.4 -0.1 c 0.3 0 0.5 -0.1 0.6 -0.4 c 0 -0.2 0 -0.4 0 -0.6 c 0 -0.1 0.1 -0.2 0.1 -0.2 c 0.1 0 0.1 0.1 0.1 0.2 c 0 0.8 0 1.5 0 1.8 c 0 0.3 0 1 0 1.5 c 0 0.1 0 0.2 -0.1 0.2 c -0.1 0 -0.1 0 -0.1 -0.2 c 0 -0.2 0 -0.3 0 -0.4 c -0.1 -0.2 -0.3 -0.3 -0.6 -0.3 C 19.3 53 18.4 53 17.4 53 H 13 z" stroke-linecap="round" />
</g>
<g transform="matrix(3.55 0 0 3.55 42.46 142.7)"  >
<path style="stroke: none; stroke-width: 1; stroke-dasharray: none; stroke-linecap: butt; stroke-dashoffset: 0; stroke-linejoin: miter; stroke-miterlimit: 4; fill: rgb(255,255,255); fill-rule: nonzero; opacity: 1;"  transform=" translate(-16.35, -43.75)" d="M 15.5 45.5 c -1.7 0 -2 0 -2.3 0 c -0.4 0 -0.5 0.1 -0.6 0.5 c 0 0.1 0 0.3 0 0.5 c 0 0.1 0 0.2 -0.1 0.2 c -0.1 0 -0.1 -0.1 -0.1 -0.3 c 0 -0.6 0 -1.3 0 -1.6 c 0 -0.4 0 -2.9 0 -3.1 c 0 -0.2 -0.1 -0.4 -0.1 -0.5 c 0 -0.1 -0.1 -0.1 -0.1 -0.2 c 0 -0.1 0.1 -0.1 0.1 -0.1 c 0.1 0 0.2 0.1 0.7 0.1 c 0.1 0 0.6 0 0.7 0.1 c 0.1 0 0.2 0 0.2 0.1 c 0 0.1 -0.1 0.1 -0.1 0.1 c -0.1 0 -0.3 0 -0.4 0.1 c -0.2 0.1 -0.3 0.2 -0.4 0.8 c 0 0.2 -0.1 1.6 -0.1 1.8 c 0 0.1 0 0.1 0.1 0.1 h 2.7 c 0.1 0 0.1 0 0.1 -0.1 c 0 -0.3 0 -1.7 0 -2 c 0 -0.3 -0.1 -0.4 -0.2 -0.5 c -0.1 -0.1 -0.1 -0.1 -0.1 -0.2 c 0 -0.1 0.1 -0.1 0.1 -0.1 c 0.1 0 0.2 0 0.8 0.1 c 0.2 0 0.7 0.1 0.7 0.1 c 0.1 0 0.2 0 0.2 0.1 c 0 0.1 0 0.1 -0.1 0.1 c -0.1 0 -0.3 0 -0.4 0 c -0.2 0.1 -0.4 0.2 -0.4 0.6 c 0 0.2 -0.1 1.5 -0.1 1.8 c 0 0.1 0.1 0.1 0.1 0.1 h 0.9 c 0.4 0 1.3 0 1.6 0 c 0.8 0 0.9 -0.4 0.9 -1.5 c 0 -0.3 0 -0.8 -0.1 -1.1 c -0.1 -0.3 -0.4 -0.4 -0.8 -0.5 c -0.1 0 -0.2 -0.1 -0.2 -0.1 c 0 -0.1 0.1 -0.1 0.3 -0.1 c 0.2 0 1 0.1 1.2 0.2 c 0.3 0.1 0.3 0.2 0.3 0.6 c 0 0.9 0 1.5 0 2.1 c 0 0.6 0 1 0 1.3 c 0 0.1 0 0.4 0 0.7 c 0 0.3 0 0.6 0 0.8 c 0 0.1 0 0.2 -0.1 0.2 c -0.1 0 -0.1 0 -0.1 -0.2 c 0 -0.2 0 -0.3 0 -0.4 c -0.1 -0.2 -0.3 -0.3 -0.6 -0.3 c -0.5 -0.1 -1.3 -0.1 -2.3 -0.1 H 15.5 z" stroke-linecap="round" />
</g>
<g transform="matrix(3.55 0 0 3.55 42.81 96.23)"  >
<path style="stroke: none; stroke-width: 1; stroke-dasharray: none; stroke-linecap: butt; stroke-dashoffset: 0; stroke-linejoin: miter; stroke-miterlimit: 4; fill: rgb(255,255,255); fill-rule: nonzero; opacity: 1;"  transform=" translate(-16.45, -30.65)" d="M 17.4 31.1 c 1.4 0 2.1 0 2.3 -0.2 c 0.2 -0.2 0.2 -0.6 0.2 -1.5 c 0 -0.6 0 -1 -0.3 -1.3 c -0.1 -0.1 -0.5 -0.3 -0.7 -0.3 c -0.1 0 -0.2 0 -0.2 -0.1 c 0 -0.1 0.1 -0.1 0.2 -0.1 s 0.9 0.1 1.3 0.2 c 0.2 0.1 0.3 0.1 0.3 0.7 c 0 0.8 0 1.5 0 2 c 0 0.6 0 1 0 1.5 c 0 0.1 0 0.4 0 0.6 c 0 0.3 0 0.6 0 0.8 c 0 0.1 0 0.2 -0.1 0.2 c -0.1 0 -0.1 0 -0.1 -0.2 c 0 -0.2 0 -0.3 0 -0.4 c -0.1 -0.2 -0.3 -0.3 -0.6 -0.3 c -0.5 -0.1 -1.3 -0.1 -2.3 -0.1 h -1.9 c -1.7 0 -2 0 -2.3 0 c -0.4 0 -0.5 0.1 -0.6 0.5 c 0 0.1 0 0.2 0 0.4 c 0 0.1 0 0.2 -0.1 0.2 c -0.1 0 -0.1 -0.1 -0.1 -0.2 c 0 -0.5 0 -1.3 0 -1.6 c 0 -0.3 0 -1.2 0 -1.6 c 0 -0.2 0 -0.2 0.1 -0.2 c 0.1 0 0.1 0.1 0.1 0.2 c 0 0.1 0 0.3 0 0.4 c 0.1 0.3 0.2 0.4 0.6 0.4 c 0.3 0 0.7 0 2.3 0 H 17.4 z" stroke-linecap="round" />
</g>
<g transform="matrix(3.55 0 0 3.55 42.99 65.2)"  >
<path style="stroke: none; stroke-width: 1; stroke-dasharray: none; stroke-linecap: butt; stroke-dashoffset: 0; stroke-linejoin: miter; stroke-miterlimit: 4; fill: rgb(255,255,255); fill-rule: nonzero; opacity: 1;"  transform=" translate(-16.5, -21.9)" d="M 15.5 25.4 c -1.7 0 -2 0 -2.3 0 c -0.4 0 -0.5 0.1 -0.6 0.5 c 0 0.1 0 0.3 0 0.4 c 0 0.1 0 0.2 -0.1 0.2 c -0.1 0 -0.1 -0.1 -0.1 -0.2 c 0 -0.6 0 -1.4 0 -1.7 c 0 -0.3 0 -1.1 0 -1.5 c 0 -0.2 0 -0.2 0.1 -0.2 c 0.1 0 0.1 0.1 0.1 0.2 c 0 0.1 0 0.2 0 0.3 c 0.1 0.3 0.2 0.4 0.6 0.4 c 0.3 0 0.7 0 2.3 0 H 17 c 1.6 0 2.2 -0.3 2.7 -0.9 c 0.4 -0.5 0.4 -1.1 0.4 -1.4 c 0 -0.5 -0.1 -1.1 -0.6 -1.5 c -0.6 -0.6 -1.6 -0.7 -2.7 -0.7 h -1.4 c -1.7 0 -2 0 -2.3 0 c -0.4 0 -0.5 0.1 -0.6 0.5 c 0 0.1 0 0.3 0 0.4 c 0 0.1 0 0.2 -0.1 0.2 c -0.1 0 -0.1 -0.1 -0.1 -0.2 c 0 -0.6 0 -1.3 0 -1.4 c 0 -0.1 0 -0.9 0 -1.3 c 0 -0.2 0 -0.2 0.1 -0.2 c 0.1 0 0.1 0.1 0.1 0.2 c 0 0.1 0 0.2 0 0.3 c 0.1 0.3 0.2 0.4 0.6 0.4 c 0.3 0 0.7 0 2.3 0 h 1.2 c 1.2 0 2.5 0.1 3.3 1.1 c 0.7 0.8 0.8 1.7 0.8 2.4 c 0 0.6 0 1.8 -0.8 2.6 c -0.5 0.6 -1.3 1 -2.9 1 H 15.5 z" stroke-linecap="round" />
</g>
<g transform="matrix(3.55 0 0 3.55 43.17 30.63)"  >
<path style="stroke: none; stroke-width: 1; stroke-dasharray: none; stroke-linecap: butt; stroke-dashoffset: 0; stroke-linejoin: miter; stroke-miterlimit: 4; fill: rgb(255,255,255); fill-rule: nonzero; opacity: 1;"  transform=" translate(-16.55, -12.15)" d="M 16 11.4 c 0.5 -0.4 3.5 -2.3 3.9 -2.5 c 0.2 -0.2 0.4 -0.4 0.4 -0.6 c 0.1 -0.2 0.1 -0.3 0.1 -0.4 c 0 -0.1 0.1 -0.1 0.1 -0.1 c 0.1 0 0.1 0.1 0.1 0.2 v 0.3 c 0 0.3 0 1.2 0 2.1 c 0 0.3 0 0.4 -0.1 0.4 c -0.1 0 -0.1 -0.1 -0.1 -0.2 c 0 -0.1 -0.1 -0.1 -0.2 0 c -1.1 0.7 -2.1 1.3 -3 1.8 l 2.6 1.7 c 0.2 0.1 0.3 0.2 0.5 0.2 c 0.1 0 0.2 -0.1 0.2 -0.2 c 0 -0.1 0 -0.2 0 -0.2 c 0 -0.1 0.1 -0.1 0.1 -0.1 c 0.1 0 0.1 0.1 0.1 0.2 V 14 c 0 0.1 0 0.8 0 1.1 c 0 0.2 0 0.8 0 1 v 0.2 c 0 0.1 0 0.2 -0.1 0.2 c -0.1 0 -0.1 -0.1 -0.1 -0.2 c 0 -0.1 0 -0.2 -0.1 -0.4 c -0.1 -0.3 -0.3 -0.5 -0.8 -0.9 l -3 -2.2 l -3.1 2 c -0.4 0.3 -0.7 0.5 -0.8 0.9 c -0.1 0.2 -0.1 0.4 -0.1 0.5 c 0 0.1 -0.1 0.1 -0.1 0.1 c -0.1 0 -0.1 -0.1 -0.1 -0.2 c 0 -0.3 0 -1.2 0 -1.7 c 0 -0.2 0 -0.9 0 -1.3 c 0 -0.2 0 -0.2 0.1 -0.2 c 0.1 0 0.1 0.1 0.1 0.2 c 0 0.1 0 0.2 0 0.3 c 0 0.1 0.1 0.2 0.2 0.2 c 0.1 0 0.2 -0.1 0.3 -0.1 c 0.9 -0.5 1.6 -1 2.4 -1.4 c -0.5 -0.3 -2 -1.3 -2.3 -1.5 c -0.2 -0.1 -0.3 -0.1 -0.4 -0.1 c -0.1 0 -0.2 0.1 -0.2 0.2 c 0 0.1 0 0.3 0 0.4 c 0 0.1 0 0.1 -0.1 0.1 c -0.1 0 -0.1 -0.1 -0.1 -0.2 c 0 -0.4 0 -1 0 -1.2 c 0 -0.2 0 -0.7 0 -1.1 c 0 -0.1 0 -0.2 0.1 -0.2 c 0.1 0 0.1 0.1 0.1 0.2 c 0 0.1 0 0.3 0.1 0.4 c 0.1 0.3 0.4 0.5 0.8 0.8 L 16 11.4 z" stroke-linecap="round" />
</g>
<g transform="matrix(3.55 0 0 3.55 556.36 26.19)"  >
<path style="stroke: none; stroke-width: 1; stroke-dasharray: none; stroke-linecap: butt; stroke-dashoffset: 0; stroke-linejoin: miter; stroke-miterlimit: 4; fill: rgb(255,255,255); fill-rule: nonzero; opacity: 1;"  transform=" translate(-161.25, -10.9)" d="M 162.2 9 c 1.8 0 2.1 0 2.5 0 c 0.4 0 0.5 -0.1 0.6 -0.5 c 0 -0.1 0 -0.3 0 -0.5 c 0 -0.1 0 -0.2 0.1 -0.2 c 0.1 0 0.1 0.1 0.1 0.3 c 0 0.6 0 1.4 0 1.7 c 0 0.4 0 3 0 3.2 c 0 0.2 0.1 0.4 0.1 0.5 c 0 0.1 0.1 0.1 0.1 0.2 c 0 0.1 -0.1 0.1 -0.1 0.1 c -0.1 0 -0.2 -0.1 -0.8 -0.1 c -0.1 0 -0.6 0 -0.8 -0.1 c -0.1 0 -0.2 0 -0.2 -0.1 c 0 -0.1 0.1 -0.1 0.2 -0.1 c 0.1 0 0.3 0 0.4 -0.1 c 0.2 -0.1 0.4 -0.2 0.4 -0.8 c 0 -0.2 0.1 -1.6 0.1 -1.8 c 0 -0.1 0 -0.1 -0.1 -0.1 h -2.9 c -0.1 0 -0.1 0 -0.1 0.1 c 0 0.3 0 1.8 0 2 c 0 0.3 0.1 0.5 0.2 0.6 c 0.1 0.1 0.1 0.1 0.1 0.2 c 0 0.1 -0.1 0.1 -0.1 0.1 c -0.1 0 -0.3 0 -0.8 -0.1 c -0.2 0 -0.7 -0.1 -0.8 -0.1 c -0.1 0 -0.3 0 -0.3 -0.1 c 0 -0.1 0 -0.1 0.1 -0.1 c 0.1 0 0.3 0 0.4 0 c 0.2 -0.1 0.4 -0.2 0.5 -0.7 c 0 -0.2 0.1 -1.5 0.1 -1.8 c 0 -0.1 -0.1 -0.1 -0.1 -0.1 h -0.9 c -0.4 0 -1.4 0 -1.7 0 c -0.8 0 -1 0.4 -1 1.6 c 0 0.3 0 0.8 0.1 1.1 c 0.1 0.3 0.4 0.4 0.9 0.5 c 0.1 0 0.2 0.1 0.2 0.1 c 0 0.1 -0.1 0.1 -0.3 0.1 c -0.3 0 -1.1 -0.1 -1.3 -0.2 c -0.3 -0.1 -0.3 -0.2 -0.3 -0.6 c 0 -0.9 0 -1.6 0 -2.2 c 0 -0.6 0 -1 0 -1.4 c 0 -0.1 0 -0.4 0 -0.7 c 0 -0.3 0 -0.6 0 -0.8 c 0 -0.1 0 -0.2 0.1 -0.2 c 0.1 0 0.1 0 0.1 0.2 c 0 0.2 0 0.3 0 0.4 c 0.1 0.2 0.3 0.3 0.6 0.3 c 0.5 0.1 1.4 0.1 2.5 0.1 H 162.2 z" stroke-linecap="round" />
</g>
<g transform="matrix(3.55 0 0 3.55 556.01 55.1)"  >
<path style="stroke: none; stroke-width: 1; stroke-dasharray: none; stroke-linecap: butt; stroke-dashoffset: 0; stroke-linejoin: miter; stroke-miterlimit: 4; fill: rgb(255,255,255); fill-rule: nonzero; opacity: 1;"  transform=" translate(-161.15, -19.05)" d="M 161.7 19.8 c -0.6 0.4 -3.7 2.3 -4.1 2.6 c -0.3 0.2 -0.4 0.4 -0.5 0.6 c -0.1 0.2 -0.1 0.3 -0.1 0.5 c 0 0.1 -0.1 0.1 -0.1 0.1 c -0.1 0 -0.1 -0.1 -0.1 -0.2 V 23 c 0 -0.3 0 -1.2 0 -2.2 c 0 -0.3 0 -0.4 0.1 -0.4 c 0.1 0 0.1 0.1 0.2 0.2 c 0 0.1 0.1 0.1 0.2 0 c 1.1 -0.7 2.2 -1.3 3.1 -1.9 l -2.7 -1.7 c -0.2 -0.1 -0.4 -0.2 -0.5 -0.2 c -0.1 0 -0.2 0.1 -0.2 0.2 c 0 0.1 0 0.2 0 0.3 c 0 0.1 -0.1 0.1 -0.1 0.1 c -0.1 0 -0.1 -0.1 -0.1 -0.2 v -0.2 c 0 -0.1 0 -0.8 0 -1.1 c 0 -0.2 0 -0.8 0 -1 v -0.2 c 0 -0.1 0 -0.2 0.1 -0.2 c 0.1 0 0.1 0.1 0.1 0.2 c 0 0.1 0 0.3 0.1 0.4 c 0.1 0.3 0.3 0.5 0.8 0.9 l 3.2 2.3 l 3.3 -2.1 c 0.5 -0.3 0.7 -0.5 0.8 -0.9 c 0.1 -0.2 0.1 -0.4 0.1 -0.5 c 0 -0.1 0.1 -0.1 0.1 -0.1 c 0.1 0 0.1 0.1 0.1 0.2 c 0 0.3 0 1.2 0 1.8 c 0 0.2 0 0.9 0 1.3 c 0 0.2 0 0.2 -0.1 0.2 s -0.1 -0.1 -0.1 -0.2 c 0 -0.1 0 -0.2 0 -0.3 c 0 -0.1 -0.1 -0.2 -0.2 -0.2 c -0.1 0 -0.2 0.1 -0.3 0.1 c -0.9 0.5 -1.7 1 -2.5 1.5 c 0.5 0.3 2.1 1.4 2.4 1.6 c 0.2 0.1 0.3 0.1 0.4 0.1 c 0.1 0 0.2 -0.1 0.2 -0.2 c 0 -0.1 0 -0.3 0 -0.4 c 0 -0.1 0 -0.1 0.1 -0.1 s 0.1 0.1 0.1 0.3 c 0 0.5 0 1 0 1.2 c 0 0.2 0 0.7 0 1.1 c 0 0.1 0 0.2 -0.1 0.2 c -0.1 0 -0.1 -0.1 -0.1 -0.2 c 0 -0.1 0 -0.3 -0.1 -0.4 c -0.1 -0.3 -0.4 -0.5 -0.9 -0.8 L 161.7 19.8 z" stroke-linecap="round" />
</g>
<g transform="matrix(3.55 0 0 3.55 555.65 95.35)"  >
<path style="stroke: none; stroke-width: 1; stroke-dasharray: none; stroke-linecap: butt; stroke-dashoffset: 0; stroke-linejoin: miter; stroke-miterlimit: 4; fill: rgb(255,255,255); fill-rule: nonzero; opacity: 1;"  transform=" translate(-161.05, -30.4)" d="M 160.1 29.8 c -1.5 0 -2.2 0 -2.5 0.3 c -0.2 0.2 -0.2 0.6 -0.2 1.6 c 0 0.6 0 1.1 0.3 1.4 c 0.1 0.1 0.5 0.3 0.7 0.3 c 0.1 0 0.2 0 0.2 0.1 c 0 0.1 -0.1 0.1 -0.3 0.1 c -0.1 0 -1 -0.1 -1.3 -0.2 c -0.3 -0.1 -0.3 -0.1 -0.3 -0.7 c 0 -0.8 0 -1.5 0 -2.1 c 0 -0.6 0 -1.1 0 -1.6 c 0 -0.1 0 -0.4 0 -0.7 c 0 -0.3 0 -0.6 0 -0.8 c 0 -0.1 0 -0.2 0.1 -0.2 c 0.1 0 0.1 0 0.1 0.2 c 0 0.2 0 0.3 0 0.4 c 0.1 0.2 0.3 0.3 0.6 0.3 c 0.5 0.1 1.4 0.1 2.5 0.1 h 2.1 c 1.8 0 2.1 0 2.5 0 c 0.4 0 0.5 -0.1 0.6 -0.5 c 0 -0.1 0 -0.2 0 -0.4 c 0 -0.1 0 -0.2 0.1 -0.2 c 0.1 0 0.1 0.1 0.1 0.3 c 0 0.5 0 1.3 0 1.6 c 0 0.3 0 1.2 0 1.7 c 0 0.2 0 0.3 -0.1 0.3 c -0.1 0 -0.1 -0.1 -0.1 -0.2 c 0 -0.1 0 -0.3 0 -0.5 c -0.1 -0.3 -0.2 -0.4 -0.6 -0.4 c -0.4 0 -0.7 0 -2.5 0 H 160.1 z" stroke-linecap="round" />
</g>
<g transform="matrix(3.55 0 0 3.55 556.54 121.06)"  >
<path style="stroke: none; stroke-width: 1; stroke-dasharray: none; stroke-linecap: butt; stroke-dashoffset: 0; stroke-linejoin: miter; stroke-miterlimit: 4; fill: rgb(255,255,255); fill-rule: nonzero; opacity: 1;"  transform=" translate(-161.3, -37.65)" d="M 159.7 35.9 c 0 -0.1 0 -0.1 -0.1 -0.1 l -1.6 -0.6 c -0.3 -0.1 -0.6 -0.2 -0.7 -0.2 c -0.2 0 -0.3 0.1 -0.3 0.5 v 0.2 c 0 0.1 -0.1 0.2 -0.1 0.2 c -0.1 0 -0.1 -0.1 -0.1 -0.2 c 0 -0.4 0 -0.9 0 -1.3 c 0 -0.1 0 -0.7 0 -1.4 c 0 -0.1 0 -0.2 0.1 -0.2 c 0.1 0 0.1 0 0.1 0.1 c 0 0.1 0 0.2 0 0.3 c 0.1 0.5 0.4 0.7 1 1 l 7.3 3.1 c 0.3 0.1 0.5 0.2 0.5 0.3 c 0 0.2 -0.1 0.2 -0.4 0.3 c -0.6 0.3 -5.4 2.2 -7.2 3 c -1.1 0.5 -1.2 0.8 -1.2 1 c 0 0.2 0 0.3 0 0.4 c 0 0.1 0 0.2 -0.1 0.2 c -0.1 0 -0.1 -0.1 -0.1 -0.5 c 0 -0.4 0 -1.3 0 -2.2 c 0 -0.2 0 -0.3 0.1 -0.3 c 0.1 0 0.1 0 0.1 0.1 c 0 0.1 0.1 0.2 0.3 0.1 l 2.3 -0.9 c 0.1 0 0.1 -0.1 0.1 -0.1 V 35.9 z M 160.3 38.4 C 160.3 38.5 160.4 38.5 160.3 38.4 l 3 -1 c 0 0 0.1 0 0.1 -0.1 c 0 0 -0.1 -0.1 -0.1 -0.1 l -2.9 -1.1 c -0.1 0 -0.1 0 -0.1 0 V 38.4 z" stroke-linecap="round" />
</g>
<g transform="matrix(3.55 0 0 3.55 556.01 150.85)"  >
<path style="stroke: none; stroke-width: 1; stroke-dasharray: none; stroke-linecap: butt; stroke-dashoffset: 0; stroke-linejoin: miter; stroke-miterlimit: 4; fill: rgb(255,255,255); fill-rule: nonzero; opacity: 1;"  transform=" translate(-161.15, -46.05)" d="M 162.2 43.7 c 1.8 0 2.1 0 2.5 0 c 0.4 0 0.5 -0.1 0.6 -0.5 c 0 -0.1 0 -0.3 0 -0.5 c 0 -0.1 0 -0.2 0.1 -0.2 c 0.1 0 0.1 0.1 0.1 0.3 c 0 0.6 0 1.4 0 1.6 c 0 0.6 0 1.4 0 1.8 c 0 2.1 -1.1 2.5 -1.7 2.5 c -0.9 0 -1.6 -0.7 -2 -1.3 c -0.3 1 -1.2 2.2 -2.5 2.2 c -1.2 0 -2.5 -1 -2.5 -3.1 c 0 -0.1 0 -0.5 0 -0.9 c 0 -0.4 0 -0.8 0 -1 c 0 -0.1 0 -0.4 0 -0.7 c 0 -0.3 0 -0.6 0 -0.8 c 0 -0.1 0 -0.2 0.1 -0.2 c 0.1 0 0.1 0 0.1 0.2 c 0 0.2 0 0.3 0 0.4 c 0.1 0.2 0.3 0.3 0.6 0.3 c 0.5 0.1 1.4 0.1 2.5 0.1 H 162.2 z M 158.6 45.2 c -0.8 0 -1 0 -1.2 0.4 c -0.1 0.3 -0.1 0.6 -0.1 0.8 c 0 0.6 0.4 1.4 1.6 1.4 c 0.5 0 1.5 -0.2 2.1 -1.1 c 0.2 -0.2 0.3 -0.6 0.3 -1 v -0.5 c 0 0 0 -0.1 -0.1 -0.1 H 158.6 z M 162 45.2 c -0.1 0 -0.1 0 -0.1 0.1 c 0 0.1 0 0.3 0 0.5 c 0 0.4 0 0.7 0.2 0.9 c 0.2 0.3 0.7 0.5 1.2 0.5 c 0.8 0 1.8 -0.5 1.8 -1.5 c 0 -0.2 0 -0.4 0 -0.5 c 0 -0.1 -0.1 -0.1 -0.2 -0.1 H 162 z" stroke-linecap="round" />
</g>
<g transform="matrix(3.55 0 0 3.55 556.19 184.9)"  >
<path style="stroke: none; stroke-width: 1; stroke-dasharray: none; stroke-linecap: butt; stroke-dashoffset: 0; stroke-linejoin: miter; stroke-miterlimit: 4; fill: rgb(255,255,255); fill-rule: nonzero; opacity: 1;"  transform=" translate(-161.2, -55.65)" d="M 161.2 50.8 c 2 0 4.6 1.4 4.6 4.9 c 0 3 -1.7 4.8 -4.4 4.8 c -2.7 0 -4.8 -1.9 -4.8 -4.9 C 156.6 52.2 159.1 50.8 161.2 50.8 M 161 58.7 c 2.6 0 4.2 -1.5 4.2 -3.4 c 0 -1.3 -0.7 -2.8 -3.6 -2.8 c -2.4 0 -4.3 1.3 -4.3 3.5 C 157.2 56.9 157.6 58.7 161 58.7" stroke-linecap="round" />
</g>
<g transform="matrix(3.55 0 0 3.55 555.82 222.67)"  >
<path style="stroke: none; stroke-width: 1; stroke-dasharray: none; stroke-linecap: butt; stroke-dashoffset: 0; stroke-linejoin: miter; stroke-miterlimit: 4; fill: rgb(255,255,255); fill-rule: nonzero; opacity: 1;"  transform=" translate(-161.1, -66.3)" d="M 162.2 62.8 c 1.8 0 2.1 0 2.5 0 c 0.4 0 0.5 -0.1 0.6 -0.5 c 0 -0.1 0 -0.3 0 -0.5 c 0 -0.1 0 -0.2 0.1 -0.2 s 0.1 0.1 0.1 0.3 c 0 0.6 0 1.4 0 1.6 c 0 0.4 0 1.5 0 1.8 c 0 0.7 -0.1 1.6 -0.5 2.2 c -0.2 0.3 -0.8 0.8 -1.6 0.8 c -0.9 0 -1.6 -0.5 -2.6 -1.6 c -1.3 1 -2.4 1.9 -3.1 2.6 c -0.7 0.7 -0.7 1.1 -0.8 1.3 c 0 0.1 0 0.2 0 0.3 c 0 0.1 -0.1 0.1 -0.1 0.1 c -0.1 0 -0.1 -0.1 -0.1 -0.2 v -1.1 c 0 -0.7 0.1 -1 0.2 -1.3 c 0.3 -0.5 0.8 -0.9 1.7 -1.6 c 0.6 -0.5 1.4 -1 1.6 -1.1 c 0.1 -0.1 0.1 -0.1 0.1 -0.2 l 0 -1.1 c 0 -0.1 0 -0.1 -0.1 -0.1 h -0.2 c -1.1 0 -2 0 -2.5 0.1 c -0.3 0 -0.6 0.1 -0.6 0.5 c 0 0.2 0 0.4 0 0.6 c 0 0.1 -0.1 0.1 -0.1 0.1 c -0.1 0 -0.1 -0.1 -0.1 -0.2 c 0 -0.7 0 -1.6 0 -1.8 c 0 -0.2 0 -1 0 -1.4 c 0 -0.1 0 -0.2 0.1 -0.2 c 0.1 0 0.1 0 0.1 0.2 c 0 0.2 0 0.3 0 0.4 c 0.1 0.2 0.3 0.3 0.6 0.3 c 0.5 0.1 1.4 0.1 2.5 0.1 H 162.2 z M 161.3 64.3 c -0.1 0 -0.2 0 -0.2 0.1 c -0.1 0.3 -0.1 0.6 -0.1 0.9 c 0 0.5 0 0.6 0.2 0.8 c 0.3 0.4 0.8 0.8 1.7 0.8 c 1.6 0 2.1 -1.1 2.1 -1.8 c 0 -0.3 0 -0.6 0 -0.7 c 0 -0.1 -0.1 -0.1 -0.2 -0.1 H 161.3 z" stroke-linecap="round" />
</g>
<g transform="matrix(3.55 0 0 3.55 556.36 248.91)"  >
<path style="stroke: none; stroke-width: 1; stroke-dasharray: none; stroke-linecap: butt; stroke-dashoffset: 0; stroke-linejoin: miter; stroke-miterlimit: 4; fill: rgb(255,255,255); fill-rule: nonzero; opacity: 1;"  transform=" translate(-161.25, -73.7)" d="M 162.2 71.8 c 1.8 0 2.1 0 2.5 0 c 0.4 0 0.5 -0.1 0.6 -0.5 c 0 -0.1 0 -0.3 0 -0.5 c 0 -0.1 0 -0.2 0.1 -0.2 c 0.1 0 0.1 0.1 0.1 0.3 c 0 0.6 0 1.4 0 1.7 c 0 0.4 0 3 0 3.2 c 0 0.2 0.1 0.4 0.1 0.5 c 0 0.1 0.1 0.1 0.1 0.2 c 0 0.1 -0.1 0.1 -0.1 0.1 c -0.1 0 -0.2 -0.1 -0.8 -0.1 c -0.1 0 -0.6 0 -0.8 -0.1 c -0.1 0 -0.2 0 -0.2 -0.1 c 0 -0.1 0.1 -0.1 0.2 -0.1 c 0.1 0 0.3 0 0.4 -0.1 c 0.2 -0.1 0.4 -0.2 0.4 -0.8 c 0 -0.2 0.1 -1.6 0.1 -1.8 c 0 -0.1 0 -0.1 -0.1 -0.1 h -2.9 c -0.1 0 -0.1 0 -0.1 0.1 c 0 0.3 0 1.8 0 2 c 0 0.3 0.1 0.5 0.2 0.6 c 0.1 0.1 0.1 0.1 0.1 0.2 c 0 0.1 -0.1 0.1 -0.1 0.1 c -0.1 0 -0.3 0 -0.8 -0.1 c -0.2 0 -0.7 -0.1 -0.8 -0.1 c -0.1 0 -0.3 0 -0.3 -0.1 c 0 -0.1 0 -0.1 0.1 -0.1 c 0.1 0 0.3 0 0.4 0 c 0.2 -0.1 0.4 -0.2 0.5 -0.7 c 0 -0.2 0.1 -1.5 0.1 -1.8 c 0 -0.1 -0.1 -0.1 -0.1 -0.1 h -0.9 c -0.4 0 -1.4 0 -1.7 0 c -0.8 0 -1 0.4 -1 1.6 c 0 0.3 0 0.8 0.1 1.1 c 0.1 0.3 0.4 0.4 0.9 0.5 c 0.1 0 0.2 0.1 0.2 0.1 c 0 0.1 -0.1 0.1 -0.3 0.1 c -0.3 0 -1.1 -0.1 -1.3 -0.2 c -0.3 -0.1 -0.3 -0.2 -0.3 -0.6 c 0 -0.9 0 -1.6 0 -2.2 c 0 -0.6 0 -1 0 -1.4 c 0 -0.1 0 -0.4 0 -0.7 c 0 -0.3 0 -0.6 0 -0.8 c 0 -0.1 0 -0.2 0.1 -0.2 c 0.1 0 0.1 0 0.1 0.2 c 0 0.2 0 0.3 0 0.4 c 0.1 0.2 0.3 0.3 0.6 0.3 c 0.5 0.1 1.4 0.1 2.5 0.1 H 162.2 z" stroke-linecap="round" />
</g>
<g transform="matrix(3.55 0 0 3.55 555.65 287.93)"  >
<path style="stroke: none; stroke-width: 1; stroke-dasharray: none; stroke-linecap: butt; stroke-dashoffset: 0; stroke-linejoin: miter; stroke-miterlimit: 4; fill: rgb(255,255,255); fill-rule: nonzero; opacity: 1;"  transform=" translate(-161.05, -84.7)" d="M 164.4 81.4 c 0.6 -0.3 0.8 -0.4 0.9 -0.9 c 0 -0.2 0 -0.4 0 -0.5 c 0 -0.1 0.1 -0.1 0.1 -0.1 c 0.1 0 0.1 0.1 0.1 0.3 c 0 0.6 0 1.3 0 1.7 c 0 0.3 0 0.9 0 1.5 c 0 0.1 0 0.3 -0.1 0.3 c -0.1 0 -0.1 -0.1 -0.1 -0.2 c 0 -0.2 0 -0.4 -0.1 -0.5 c -0.1 -0.1 -0.1 -0.1 -0.2 -0.1 c -0.2 0 -0.5 0.1 -0.9 0.3 l -5.2 2 v 0 c 1.2 0.5 5 2 5.7 2.3 c 0.2 0.1 0.3 0.1 0.4 0.1 c 0.1 0 0.2 -0.1 0.2 -0.2 c 0 -0.1 0.1 -0.3 0.1 -0.5 c 0 -0.1 0 -0.2 0.1 -0.2 c 0.1 0 0.1 0.1 0.1 0.3 c 0 0.6 0 1.1 0 1.2 c 0 0.2 0 0.7 0 1.1 c 0 0.1 0 0.2 -0.1 0.2 c -0.1 0 -0.1 -0.1 -0.1 -0.2 c 0 -0.1 0 -0.4 -0.1 -0.6 c -0.1 -0.1 -0.3 -0.3 -1 -0.6 c -1.1 -0.5 -1.7 -0.8 -3.2 -1.4 c -1.7 -0.7 -3 -1.3 -3.6 -1.6 c -0.7 -0.3 -0.8 -0.4 -0.8 -0.6 c 0 -0.2 0.1 -0.3 0.7 -0.5 L 164.4 81.4 z" stroke-linecap="round" />
</g>
<g transform="matrix(3.55 0 0 3.55 556.36 313.28)"  >
<path style="stroke: none; stroke-width: 1; stroke-dasharray: none; stroke-linecap: butt; stroke-dashoffset: 0; stroke-linejoin: miter; stroke-miterlimit: 4; fill: rgb(255,255,255); fill-rule: nonzero; opacity: 1;"  transform=" translate(-161.25, -91.85)" d="M 162.2 90.8 c 1.8 0 2.1 0 2.5 0 c 0.4 0 0.5 -0.1 0.6 -0.4 c 0 -0.1 0.1 -0.3 0.1 -0.4 c 0 -0.1 0 -0.2 0.1 -0.2 c 0.1 0 0.1 0.1 0.1 0.3 c 0 0.4 0 1.2 0 1.6 c 0 0.3 0 1 0 1.5 c 0 0.1 0 0.2 -0.1 0.2 c -0.1 0 -0.1 -0.1 -0.1 -0.2 c 0 -0.1 0 -0.2 0 -0.3 c -0.1 -0.3 -0.2 -0.4 -0.6 -0.4 c -0.4 0 -0.7 0 -2.5 0 h -2.1 c -1.1 0 -2.1 0 -2.6 0.1 c -0.3 0 -0.5 0.1 -0.5 0.5 c 0 0.2 0 0.4 0 0.6 c 0 0.1 -0.1 0.2 -0.1 0.2 c -0.1 0 -0.1 -0.1 -0.1 -0.2 c 0 -0.8 0 -1.6 0 -1.9 c 0 -0.3 0 -1.1 0 -1.5 c 0 -0.1 0 -0.2 0.1 -0.2 c 0.1 0 0.1 0 0.1 0.2 c 0 0.2 0 0.3 0 0.4 c 0.1 0.2 0.2 0.3 0.6 0.3 c 0.5 0.1 1.4 0.1 2.5 0.1 H 162.2 z" stroke-linecap="round" />
</g>
<g transform="matrix(3.55 0 0 3.55 555.82 340.78)"  >
<path style="stroke: none; stroke-width: 1; stroke-dasharray: none; stroke-linecap: butt; stroke-dashoffset: 0; stroke-linejoin: miter; stroke-miterlimit: 4; fill: rgb(255,255,255); fill-rule: nonzero; opacity: 1;"  transform=" translate(-161.1, -99.6)" d="M 162.2 96.1 c 1.8 0 2.1 0 2.5 0 c 0.4 0 0.5 -0.1 0.6 -0.5 c 0 -0.1 0 -0.3 0 -0.5 c 0 -0.1 0 -0.2 0.1 -0.2 s 0.1 0.1 0.1 0.3 c 0 0.6 0 1.4 0 1.6 c 0 0.4 0 1.5 0 1.8 c 0 0.7 -0.1 1.6 -0.5 2.2 c -0.2 0.3 -0.8 0.8 -1.6 0.8 c -0.9 0 -1.6 -0.5 -2.6 -1.6 c -1.3 1 -2.4 1.9 -3.1 2.6 c -0.7 0.7 -0.7 1.1 -0.8 1.3 c 0 0.1 0 0.2 0 0.3 c 0 0.1 -0.1 0.1 -0.1 0.1 c -0.1 0 -0.1 -0.1 -0.1 -0.2 v -1.1 c 0 -0.7 0.1 -1 0.2 -1.3 c 0.3 -0.5 0.8 -0.9 1.7 -1.6 c 0.6 -0.5 1.4 -1 1.6 -1.1 c 0.1 -0.1 0.1 -0.1 0.1 -0.2 l 0 -1.1 c 0 -0.1 0 -0.1 -0.1 -0.1 h -0.2 c -1.1 0 -2 0 -2.5 0.1 c -0.3 0 -0.6 0.1 -0.6 0.5 c 0 0.2 0 0.4 0 0.6 c 0 0.1 -0.1 0.1 -0.1 0.1 c -0.1 0 -0.1 -0.1 -0.1 -0.2 c 0 -0.7 0 -1.6 0 -1.8 c 0 -0.2 0 -1 0 -1.4 c 0 -0.1 0 -0.2 0.1 -0.2 c 0.1 0 0.1 0 0.1 0.2 c 0 0.2 0 0.3 0 0.4 c 0.1 0.2 0.3 0.3 0.6 0.3 c 0.5 0.1 1.4 0.1 2.5 0.1 H 162.2 z M 161.3 97.6 c -0.1 0 -0.2 0 -0.2 0.1 c -0.1 0.3 -0.1 0.6 -0.1 0.9 c 0 0.5 0 0.6 0.2 0.8 c 0.3 0.4 0.8 0.8 1.7 0.8 c 1.6 0 2.1 -1.1 2.1 -1.8 c 0 -0.3 0 -0.6 0 -0.7 c 0 -0.1 -0.1 -0.1 -0.2 -0.1 H 161.3 z" stroke-linecap="round" />
</g>
<g transform="matrix(3.55 0 0 3.55 546.25 366.66)"  >
<path style="stroke: none; stroke-width: 1; stroke-dasharray: none; stroke-linecap: butt; stroke-dashoffset: 0; stroke-linejoin: miter; stroke-miterlimit: 4; fill: rgb(255,255,255); fill-rule: nonzero; opacity: 1;"  transform=" translate(-161.4, -106.9)" d="M 164.9 106.1 l 0 -1.7 c 0 -0.7 -0.1 -1 -0.4 -1.1 c -0.2 -0.1 -0.3 -0.2 -0.4 -0.2 c -0.1 0 -0.1 -0.1 -0.1 -0.1 c 0 -0.1 0.1 -0.1 0.2 -0.1 c 0.2 0 1.3 0.2 1.4 0.3 c 0.1 0 0.2 0.1 0.2 0.1 c 0 0.1 -0.1 0.2 -0.1 0.5 c 0 0.3 -0.1 0.8 -0.1 1.2 v 4.7 c 0 0.4 0 0.6 0.1 0.8 c 0 0.2 0.1 0.3 0.1 0.3 c 0 0.1 -0.1 0.1 -0.2 0.1 c -0.2 0 -1.1 0 -1.4 0 c -0.1 0 -0.2 0 -0.2 -0.1 c 0 -0.1 0.1 -0.1 0.2 -0.1 l 0.1 0 c 0.3 0 0.7 -0.3 0.7 -1.4 l 0 -1.5 h -4.7 c -1.1 0 -2 0 -2.5 0.1 c -0.3 0 -0.5 0.1 -0.6 0.5 c 0 0.2 0 0.4 0 0.6 c 0 0.1 -0.1 0.2 -0.1 0.2 c -0.1 0 -0.1 -0.1 -0.1 -0.2 c 0 -0.8 0 -1.6 0 -1.9 c 0 -0.3 0 -1.1 0 -1.5 c 0 -0.1 0 -0.2 0.1 -0.2 c 0.1 0 0.1 0 0.1 0.2 c 0 0.2 0 0.3 0 0.4 c 0.1 0.2 0.3 0.3 0.6 0.3 c 0.5 0.1 1.4 0.1 2.5 0.1 H 164.9 z" stroke-linecap="round" />
</g>
<g transform="matrix(3.55 0 0 3.55 555.82 398.94)"  >
<path style="stroke: none; stroke-width: 1; stroke-dasharray: none; stroke-linecap: butt; stroke-dashoffset: 0; stroke-linejoin: miter; stroke-miterlimit: 4; fill: rgb(255,255,255); fill-rule: nonzero; opacity: 1;"  transform=" translate(-161.1, -116)" d="M 162.2 112.3 c 1.8 0 2.1 0 2.5 0 c 0.4 0 0.5 -0.1 0.6 -0.5 c 0 -0.1 0 -0.3 0 -0.5 c 0 -0.1 0 -0.2 0.1 -0.2 c 0.1 0 0.1 0.1 0.1 0.3 c 0 0.6 0 1.4 0 1.8 c 0 0.3 0 1.1 0 1.5 c 0 0.2 0 0.3 -0.1 0.3 c -0.1 0 -0.1 -0.1 -0.1 -0.2 c 0 -0.1 0 -0.2 0 -0.3 c -0.1 -0.3 -0.2 -0.4 -0.6 -0.4 c -0.4 0 -0.7 0 -2.5 0 h -1.6 c -1.7 0 -2.4 0.3 -2.8 0.9 c -0.4 0.5 -0.5 1.1 -0.5 1.5 c 0 0.5 0.2 1.1 0.6 1.6 c 0.6 0.7 1.6 0.7 2.8 0.7 h 1.5 c 1.8 0 2.1 0 2.5 0 c 0.4 0 0.5 -0.1 0.6 -0.5 c 0 -0.1 0 -0.3 0 -0.4 c 0 -0.1 0 -0.2 0.1 -0.2 c 0.1 0 0.1 0.1 0.1 0.2 c 0 0.6 0 1.4 0 1.4 c 0 0.1 0 0.9 0 1.4 c 0 0.2 0 0.2 -0.1 0.2 c -0.1 0 -0.1 -0.1 -0.1 -0.2 c 0 -0.1 0 -0.2 0 -0.3 c -0.1 -0.3 -0.2 -0.4 -0.6 -0.4 c -0.4 0 -0.7 0 -2.5 0 H 161 c -1.3 0 -2.7 -0.1 -3.5 -1.1 c -0.7 -0.8 -0.8 -1.7 -0.8 -2.5 c 0 -0.6 0 -1.8 0.8 -2.7 c 0.5 -0.6 1.4 -1.1 3.1 -1.1 H 162.2 z" stroke-linecap="round" />
</g>
<g transform="matrix(3.55 0 0 3.55 555.48 429.43)"  >
<path style="stroke: none; stroke-width: 1; stroke-dasharray: none; stroke-linecap: butt; stroke-dashoffset: 0; stroke-linejoin: miter; stroke-miterlimit: 4; fill: rgb(255,255,255); fill-rule: nonzero; opacity: 1;"  transform=" translate(-161, -124.6)" d="M 156.9 122.1 c 0.1 -0.2 0.1 -0.2 0.4 -0.2 c 0.6 0 1.4 0.1 1.6 0.1 c 0.2 0 0.3 0.1 0.3 0.1 c 0 0.1 -0.1 0.1 -0.2 0.1 c -0.1 0 -0.4 0 -0.6 0.1 c -0.9 0.3 -1.2 1.1 -1.2 1.9 c 0 1 0.7 1.6 1.5 1.6 c 0.5 0 1 -0.1 1.6 -1.2 l 0.4 -0.7 c 0.8 -1.4 1.6 -1.8 2.6 -1.8 c 1.4 0 2.3 1.3 2.3 3 c 0 0.8 -0.1 1.4 -0.2 1.7 c 0 0.1 -0.1 0.2 -0.2 0.2 c -0.1 0 -0.5 0 -1.4 0 c -0.2 0 -0.4 -0.1 -0.4 -0.1 c 0 -0.1 0.1 -0.1 0.2 -0.1 c 0.1 0 0.5 -0.1 0.8 -0.3 c 0.2 -0.2 0.5 -0.5 0.5 -1.3 c 0 -0.8 -0.5 -1.6 -1.2 -1.6 c -0.5 0 -0.9 0.2 -1.5 1.2 l -0.3 0.5 c -0.9 1.5 -1.8 2 -2.8 2 c -0.9 0 -1.6 -0.3 -2.2 -1.2 c -0.4 -0.6 -0.5 -1.3 -0.5 -2 C 156.6 123.4 156.7 122.6 156.9 122.1" stroke-linecap="round" />
</g>
</svg>